P1
5 9
0 1 1 1 0 
1 1 1 1 1 
1 1 0 1 1 
1 1 0 1 1 
1 1 0 1 1 
1 1 0 1 1 
1 1 0 1 1 
1 1 1 1 1 
0 1 1 1 0 
