P3
47 47
255
255 255 255 255 255 255 255 255 255 255 255 255 0 0 0 255 255 255 255 255 255 255 255 255 255 255 255 255 255 255 255 255 255 255 255 255 255 255 255 255 255 255 255 255 255 255 255 255 255 255 255 255 255 255 255 255 255 255 255 255 255 255 255 255 255 255 255 255 255 255 255 255 255 255 255 255 255 255 255 255 255 255 255 255 255 255 255 255 255 255 255 255 255 255 255 255 255 255 255 255 255 255 255 255 255 255 255 255 255 255 255 255 255 255 255 255 255 255 255 255 255 255 255 255 255 255 255 255 255 255 255 255 255 255 255 255 255 255 255 255 255 
255 255 255 255 255 255 255 255 255 0 0 0 235 98 0 0 0 0 255 255 255 255 255 255 255 255 255 255 255 255 255 255 255 255 255 255 255 255 255 255 255 255 255 255 255 255 255 255 255 255 255 255 255 255 255 255 255 255 255 255 255 255 255 255 255 255 255 255 255 255 255 255 255 255 255 255 255 255 255 255 255 255 255 255 255 255 255 255 255 255 255 255 255 255 255 255 255 255 255 255 255 255 255 255 255 255 255 255 255 255 255 255 255 255 255 255 255 255 255 255 255 255 255 255 255 255 255 255 255 255 255 255 255 255 255 255 255 255 255 255 255 
255 255 255 255 255 255 255 255 255 0 0 0 235 98 0 0 0 0 255 255 255 255 255 255 255 255 255 255 255 255 255 255 255 255 255 255 255 255 255 255 255 255 255 255 255 255 255 255 255 255 255 191 54 12 255 255 255 255 255 255 255 255 255 255 255 255 255 255 255 255 255 255 255 255 255 255 255 255 191 54 12 0 0 0 255 255 255 255 255 255 255 255 255 255 255 255 255 255 255 255 255 255 255 255 255 255 255 255 255 255 255 255 255 255 255 255 255 255 255 255 255 255 255 255 255 255 255 255 255 255 255 255 255 255 255 255 255 255 255 255 255 
255 255 255 255 255 255 0 0 0 235 98 0 235 98 0 235 98 0 0 0 0 0 0 0 255 255 255 255 255 255 255 255 255 255 255 255 255 255 255 255 255 255 255 255 255 255 255 255 0 0 0 255 255 255 0 0 0 255 255 255 255 255 255 255 255 255 255 255 255 255 255 255 255 255 255 0 0 0 255 255 255 255 255 255 0 0 0 191 54 12 255 255 255 255 255 255 255 255 255 255 255 255 255 255 255 255 255 255 255 255 255 255 255 255 191 54 12 255 255 255 255 255 255 255 255 255 255 255 255 255 255 255 255 255 255 255 255 255 255 255 255 
255 255 255 255 255 255 0 0 0 191 54 12 235 98 0 235 98 0 0 0 0 235 98 0 0 0 0 255 255 255 255 255 255 255 255 255 255 255 255 255 255 255 255 255 255 255 255 255 191 54 12 255 255 255 255 255 255 0 0 0 255 255 255 255 255 255 255 255 255 255 255 255 255 255 255 255 255 255 0 0 0 255 255 255 255 255 255 255 255 255 191 54 12 255 255 255 255 255 255 255 255 255 255 255 255 255 255 255 255 255 255 0 0 0 255 255 255 191 54 12 255 255 255 255 255 255 255 255 255 255 255 255 255 255 255 255 255 255 255 255 255 
255 255 255 255 255 255 191 54 12 0 0 0 191 54 12 235 98 0 235 98 0 235 98 0 0 0 0 255 255 255 255 255 255 255 255 255 255 255 255 255 255 255 255 255 255 255 255 255 255 255 255 0 0 0 255 255 255 191 54 12 0 0 0 255 255 255 255 255 255 255 255 255 255 255 255 255 255 255 255 255 255 0 0 0 255 255 255 255 255 255 255 255 255 0 0 0 191 54 12 255 255 255 255 255 255 255 255 255 0 0 0 255 255 255 255 255 255 0 0 0 255 255 255 255 255 255 255 255 255 255 255 255 255 255 255 255 255 255 255 255 255 
255 255 255 255 255 255 191 54 12 0 0 0 0 0 0 191 54 12 235 98 0 235 98 0 0 0 0 255 255 255 255 255 255 255 255 255 255 255 255 255 255 255 255 255 255 255 255 255 255 255 255 0 0 0 255 255 255 191 54 12 255 255 255 0 0 0 255 255 255 255 255 255 255 255 255 255 255 255 255 255 255 191 54 12 255 255 255 255 255 255 255 255 255 255 255 255 255 255 255 0 0 0 255 255 255 191 54 12 255 255 255 255 255 255 255 255 255 255 255 255 0 0 0 255 255 255 255 255 255 255 255 255 255 255 255 255 255 255 255 255 255 
255 255 255 255 255 255 0 0 0 0 0 0 0 0 0 0 0 0 235 98 0 235 98 0 191 54 12 0 0 0 255 255 255 255 255 255 255 255 255 255 255 255 255 255 255 255 255 255 255 255 255 0 0 0 255 255 255 255 255 255 255 255 255 255 255 255 0 0 0 255 255 255 255 255 255 255 255 255 255 255 255 255 255 255 0 0 0 255 255 255 255 255 255 255 255 255 255 255 255 0 0 0 255 255 255 0 0 0 255 255 255 255 255 255 255 255 255 255 255 255 255 255 255 0 0 0 255 255 255 255 255 255 255 255 255 255 255 255 255 255 255 
255 255 255 255 255 255 0 0 0 191 54 12 0 0 0 0 0 0 191 54 12 235 98 0 235 98 0 191 54 12 0 0 0 255 255 255 255 255 255 255 255 255 0 0 0 255 255 255 0 0 0 255 255 255 255 255 255 255 255 255 255 255 255 255 255 255 255 255 255 0 0 0 255 255 255 255 255 255 255 255 255 255 255 255 0 0 0 255 255 255 255 255 255 255 255 255 255 255 255 235 98 0 0 0 0 255 255 255 255 255 255 255 255 255 255 255 255 255 255 255 0 0 0 255 255 255 255 255 255 255 255 255 255 255 255 255 255 255 255 255 255 
255 255 255 255 255 255 0 0 0 191 54 12 0 0 0 0 0 0 0 0 0 235 98 0 235 98 0 0 0 0 255 255 255 255 255 255 255 255 255 0 0 0 255 255 255 0 0 0 0 0 0 255 255 255 255 255 255 255 255 255 255 255 255 255 255 255 191 54 12 0 0 0 255 255 255 255 255 255 255 255 255 255 255 255 191 54 12 255 255 255 255 255 255 255 255 255 255 255 255 255 255 255 0 0 0 255 255 255 255 255 255 255 255 255 255 255 255 0 0 0 255 255 255 255 255 255 255 255 255 255 255 255 255 255 255 255 255 255 255 255 255 
255 255 255 255 255 255 255 255 255 191 54 12 0 0 0 0 0 0 0 0 0 191 54 12 235 98 0 0 0 0 255 255 255 255 255 255 255 255 255 0 0 0 255 255 255 191 54 12 255 255 255 255 255 255 255 255 255 255 255 255 255 255 255 255 255 255 191 54 12 255 255 255 0 0 0 255 255 255 255 255 255 255 255 255 255 255 255 191 54 12 255 255 255 255 255 255 255 255 255 255 255 255 235 98 0 255 255 255 255 255 255 255 255 255 255 255 255 0 0 0 255 255 255 255 255 255 255 255 255 255 255 255 255 255 255 255 255 255 255 255 255 
255 255 255 255 255 255 255 255 255 0 0 0 191 54 12 0 0 0 0 0 0 0 0 0 235 98 0 235 98 0 0 0 0 255 255 255 0 0 0 255 255 255 255 255 255 255 255 255 255 255 255 255 255 255 255 255 255 255 255 255 255 255 255 191 54 12 255 255 255 255 255 255 0 0 0 255 255 255 255 255 255 255 255 255 255 255 255 0 0 0 255 255 255 255 255 255 255 255 255 255 255 255 255 255 255 235 98 0 255 255 255 255 255 255 255 255 255 255 255 255 191 54 12 255 255 255 255 255 255 255 255 255 255 255 255 255 255 255 255 255 255 
255 255 255 255 255 255 255 255 255 0 0 0 191 54 12 0 0 0 0 0 0 0 0 0 191 54 12 235 98 0 0 0 0 0 0 0 255 255 255 255 255 255 255 255 255 255 255 255 255 255 255 255 255 255 255 255 255 255 255 255 255 255 255 255 255 255 255 255 255 191 54 12 255 255 255 255 255 255 255 255 255 255 255 255 255 255 255 0 0 0 255 255 255 255 255 255 255 255 255 255 255 255 255 255 255 255 255 255 255 255 255 255 255 255 255 255 255 255 255 255 0 0 0 255 255 255 255 255 255 255 255 255 255 255 255 255 255 255 255 255 255 
255 255 255 255 255 255 255 255 255 255 255 255 0 0 0 191 54 12 0 0 0 0 0 0 191 54 12 235 98 0 235 98 0 0 0 0 255 255 255 255 255 255 255 255 255 255 255 255 255 255 255 255 255 255 255 255 255 255 255 255 255 255 255 255 255 255 255 255 255 0 0 0 255 255 255 255 255 255 255 255 255 255 255 255 191 54 12 255 255 255 255 255 255 255 255 255 0 0 0 255 255 255 255 255 255 255 255 255 255 255 255 255 255 255 255 255 255 255 255 255 255 255 255 0 0 0 255 255 255 255 255 255 255 255 255 255 255 255 255 255 255 
255 255 255 255 255 255 255 255 255 255 255 255 0 0 0 191 54 12 0 0 0 0 0 0 191 54 12 235 98 0 0 0 0 255 255 255 255 255 255 255 255 255 255 255 255 255 255 255 255 255 255 255 255 255 255 255 255 255 255 255 255 255 255 235 98 0 255 255 255 255 255 255 0 0 0 255 255 255 255 255 255 255 255 255 191 54 12 0 0 0 255 255 255 0 0 0 235 98 0 0 0 0 255 255 255 0 0 0 0 0 0 0 0 0 255 255 255 255 255 255 255 255 255 255 255 255 0 0 0 255 255 255 255 255 255 255 255 255 255 255 255 
255 255 255 255 255 255 255 255 255 255 255 255 255 255 255 0 0 0 191 54 12 0 0 0 235 98 0 235 98 0 0 0 0 255 255 255 255 255 255 255 255 255 255 255 255 255 255 255 255 255 255 255 255 255 255 255 255 255 255 255 235 98 0 255 255 255 235 98 0 255 255 255 0 0 0 255 255 255 255 255 255 255 255 255 0 0 0 235 98 0 0 0 0 235 98 0 235 98 0 0 0 0 0 0 0 235 98 0 235 98 0 235 98 0 0 0 0 0 0 0 255 255 255 255 255 255 235 98 0 255 255 255 0 0 0 255 255 255 255 255 255 
255 255 255 255 255 255 255 255 255 255 255 255 255 255 255 255 255 255 0 0 0 191 54 12 191 54 12 235 98 0 0 0 0 255 255 255 255 255 255 255 255 255 255 255 255 255 255 255 255 255 255 255 255 255 255 255 255 235 98 0 255 255 255 235 98 0 255 255 255 0 0 0 191 54 12 191 54 12 0 0 0 0 0 0 235 98 0 235 98 0 235 98 0 235 98 0 235 98 0 235 98 0 235 98 0 235 98 0 235 98 0 191 54 12 191 54 12 191 54 12 0 0 0 255 255 255 255 255 255 0 0 0 255 255 255 191 54 12 255 255 255 
255 255 255 255 255 255 255 255 255 255 255 255 255 255 255 255 255 255 0 0 0 191 54 12 0 0 0 235 98 0 0 0 0 0 0 0 255 255 255 255 255 255 255 255 255 255 255 255 255 255 255 255 255 255 255 255 255 255 255 255 235 98 0 255 255 255 0 0 0 0 0 0 0 0 0 235 98 0 235 98 0 235 98 0 235 98 0 235 98 0 235 98 0 235 98 0 191 54 12 0 0 0 0 0 0 0 0 0 191 54 12 191 54 12 0 0 0 0 0 0 255 255 255 255 255 255 255 255 255 0 0 0 255 255 255 0 0 0 255 255 255 
255 255 255 255 255 255 255 255 255 255 255 255 255 255 255 0 0 0 255 255 255 0 0 0 235 98 0 235 98 0 235 98 0 0 0 0 255 255 255 255 255 255 255 255 255 255 255 255 255 255 255 235 98 0 255 255 255 235 98 0 255 255 255 235 98 0 0 0 0 235 98 0 235 98 0 235 98 0 235 98 0 191 54 12 191 54 12 0 0 0 0 0 0 0 0 0 0 0 0 0 0 0 0 0 0 191 54 12 191 54 12 0 0 0 255 255 255 255 255 255 255 255 255 255 255 255 255 255 255 235 98 0 255 255 255 255 255 255 191 54 12 
255 255 255 255 255 255 255 255 255 0 0 0 0 0 0 255 255 255 255 255 255 0 0 0 235 98 0 235 98 0 235 98 0 235 98 0 0 0 0 191 54 12 255 255 255 255 255 255 235 98 0 255 255 255 235 98 0 255 255 255 0 0 0 0 0 0 235 98 0 235 98 0 191 54 12 0 0 0 0 0 0 0 0 0 0 0 0 0 0 0 0 0 0 0 0 0 0 0 0 0 0 0 191 54 12 191 54 12 0 0 0 255 255 255 255 255 255 255 255 255 255 255 255 255 255 255 235 98 0 255 255 255 255 255 255 255 255 255 0 0 0 
255 255 255 255 255 255 0 0 0 255 255 255 255 255 255 255 255 255 255 255 255 0 0 0 0 0 0 235 98 0 235 98 0 235 98 0 235 98 0 235 98 0 0 0 0 0 0 0 0 0 0 235 98 0 0 0 0 0 0 0 235 98 0 235 98 0 235 98 0 0 0 0 0 0 0 0 0 0 0 0 0 0 0 0 0 0 0 0 0 0 0 0 0 0 0 0 191 54 12 191 54 12 191 54 12 0 0 0 255 255 255 255 255 255 255 255 255 255 255 255 255 255 255 255 255 255 255 255 255 255 255 255 255 255 255 255 255 255 0 0 0 
255 255 255 255 255 255 255 255 255 0 0 0 255 255 255 255 255 255 0 0 0 0 0 0 0 0 0 235 98 0 235 98 0 235 98 0 235 98 0 235 98 0 235 98 0 235 98 0 235 98 0 235 98 0 191 54 12 191 54 12 235 98 0 191 54 12 191 54 12 191 54 12 191 54 12 0 0 0 0 0 0 0 0 0 0 0 0 0 0 0 191 54 12 191 54 12 191 54 12 0 0 0 0 0 0 255 255 255 255 255 255 255 255 255 255 255 255 255 255 255 255 255 255 255 255 255 255 255 255 255 255 255 255 255 255 0 0 0 255 255 255 
255 255 255 255 255 255 191 54 12 255 255 255 255 255 255 255 255 255 0 0 0 0 0 0 255 255 255 0 0 0 235 98 0 235 98 0 235 98 0 235 98 0 235 98 0 235 98 0 191 54 12 0 0 0 0 0 0 0 0 0 191 54 12 191 54 12 191 54 12 191 54 12 191 54 12 191 54 12 191 54 12 191 54 12 191 54 12 0 0 0 0 0 0 0 0 0 0 0 0 255 255 255 255 255 255 255 255 255 255 255 255 255 255 255 255 255 255 255 255 255 255 255 255 255 255 255 235 98 0 255 255 255 235 98 0 0 0 0 255 255 255 
255 255 255 255 255 255 0 0 0 255 255 255 255 255 255 0 0 0 0 0 0 0 0 0 255 255 255 0 0 0 235 98 0 235 98 0 235 98 0 235 98 0 235 98 0 235 98 0 0 0 0 0 0 0 0 0 0 0 0 0 0 0 0 191 54 12 191 54 12 191 54 12 0 0 0 0 0 0 0 0 0 0 0 0 0 0 0 191 54 12 191 54 12 0 0 0 0 0 0 255 255 255 255 255 255 255 255 255 255 255 255 255 255 255 255 255 255 255 255 255 255 255 255 235 98 0 255 255 255 235 98 0 0 0 0 255 255 255 255 255 255 
255 255 255 255 255 255 0 0 0 255 255 255 255 255 255 0 0 0 191 54 12 0 0 0 0 0 0 0 0 0 235 98 0 235 98 0 235 98 0 235 98 0 235 98 0 0 0 0 255 255 255 255 255 255 0 0 0 0 0 0 0 0 0 191 54 12 191 54 12 191 54 12 0 0 0 255 255 255 255 255 255 255 255 255 0 0 0 191 54 12 191 54 12 235 98 0 235 98 0 0 0 0 255 255 255 255 255 255 255 255 255 255 255 255 255 255 255 255 255 255 255 255 255 255 255 255 235 98 0 0 0 0 0 0 0 255 255 255 255 255 255 
255 255 255 191 54 12 255 255 255 255 255 255 255 255 255 0 0 0 191 54 12 191 54 12 0 0 0 191 54 12 235 98 0 235 98 0 235 98 0 235 98 0 235 98 0 0 0 0 255 255 255 255 255 255 0 0 0 0 0 0 0 0 0 191 54 12 191 54 12 0 0 0 255 255 255 255 255 255 255 255 255 255 255 255 255 255 255 0 0 0 191 54 12 235 98 0 235 98 0 235 98 0 0 0 0 255 255 255 255 255 255 255 255 255 255 255 255 255 255 255 255 255 255 235 98 0 255 255 255 235 98 0 255 255 255 0 0 0 255 255 255 
0 0 0 255 255 255 255 255 255 255 255 255 255 255 255 255 255 255 0 0 0 191 54 12 235 98 0 235 98 0 235 98 0 235 98 0 235 98 0 235 98 0 235 98 0 235 98 0 0 0 0 0 0 0 0 0 0 0 0 0 191 54 12 191 54 12 191 54 12 0 0 0 255 255 255 255 255 255 255 255 255 255 255 255 255 255 255 255 255 255 0 0 0 235 98 0 235 98 0 235 98 0 0 0 0 255 255 255 235 98 0 255 255 255 235 98 0 255 255 255 235 98 0 255 255 255 235 98 0 255 255 255 235 98 0 255 255 255 0 0 0 
255 255 255 0 0 0 191 54 12 255 255 255 255 255 255 255 255 255 0 0 0 191 54 12 191 54 12 235 98 0 0 0 0 0 0 0 235 98 0 235 98 0 191 54 12 191 54 12 191 54 12 191 54 12 191 54 12 191 54 12 191 54 12 191 54 12 0 0 0 255 255 255 235 98 0 255 255 255 255 255 255 255 255 255 255 255 255 0 0 0 191 54 12 235 98 0 235 98 0 235 98 0 0 0 0 235 98 0 255 255 255 235 98 0 255 255 255 235 98 0 255 255 255 235 98 0 255 255 255 235 98 0 255 255 255 0 0 0 255 255 255 
255 255 255 0 0 0 255 255 255 255 255 255 255 255 255 255 255 255 255 255 255 0 0 0 191 54 12 191 54 12 191 54 12 191 54 12 191 54 12 191 54 12 191 54 12 191 54 12 191 54 12 191 54 12 191 54 12 191 54 12 191 54 12 0 0 0 255 255 255 235 98 0 255 255 255 255 255 255 255 255 255 255 255 255 255 255 255 255 255 255 0 0 0 191 54 12 235 98 0 235 98 0 235 98 0 0 0 0 235 98 0 255 255 255 235 98 0 255 255 255 235 98 0 255 255 255 235 98 0 255 255 255 0 0 0 255 255 255 255 255 255 
255 255 255 255 255 255 0 0 0 255 255 255 255 255 255 255 255 255 255 255 255 255 255 255 0 0 0 0 0 0 191 54 12 191 54 12 191 54 12 191 54 12 191 54 12 191 54 12 191 54 12 191 54 12 191 54 12 0 0 0 0 0 0 255 255 255 235 98 0 255 255 255 235 98 0 255 255 255 235 98 0 255 255 255 255 255 255 0 0 0 191 54 12 191 54 12 235 98 0 191 54 12 235 98 0 0 0 0 255 255 255 235 98 0 255 255 255 235 98 0 255 255 255 235 98 0 0 0 0 0 0 0 255 255 255 255 255 255 255 255 255 
255 255 255 255 255 255 0 0 0 255 255 255 255 255 255 255 255 255 255 255 255 255 255 255 255 255 255 255 255 255 0 0 0 0 0 0 191 54 12 191 54 12 191 54 12 191 54 12 0 0 0 0 0 0 0 0 0 235 98 0 255 255 255 235 98 0 255 255 255 235 98 0 255 255 255 235 98 0 255 255 255 235 98 0 0 0 0 0 0 0 191 54 12 191 54 12 191 54 12 235 98 0 191 54 12 235 98 0 0 0 0 255 255 255 235 98 0 255 255 255 235 98 0 255 255 255 235 98 0 255 255 255 0 0 0 255 255 255 255 255 255 
255 255 255 255 255 255 191 54 12 255 255 255 255 255 255 255 255 255 255 255 255 255 255 255 255 255 255 255 255 255 255 255 255 255 255 255 0 0 0 0 0 0 0 0 0 0 0 0 235 98 0 255 255 255 235 98 0 255 255 255 235 98 0 255 255 255 235 98 0 255 255 255 235 98 0 255 255 255 235 98 0 255 255 255 255 255 255 255 255 255 0 0 0 191 54 12 191 54 12 191 54 12 235 98 0 191 54 12 0 0 0 235 98 0 255 255 255 235 98 0 255 255 255 235 98 0 0 0 0 0 0 0 255 255 255 255 255 255 255 255 255 
255 255 255 0 0 0 255 255 255 255 255 255 255 255 255 255 255 255 255 255 255 255 255 255 255 255 255 255 255 255 255 255 255 255 255 255 255 255 255 235 98 0 255 255 255 235 98 0 255 255 255 235 98 0 255 255 255 235 98 0 255 255 255 235 98 0 255 255 255 235 98 0 255 255 255 235 98 0 255 255 255 235 98 0 255 255 255 0 0 0 191 54 12 191 54 12 191 54 12 191 54 12 191 54 12 191 54 12 0 0 0 255 255 255 235 98 0 255 255 255 0 0 0 0 0 0 255 255 255 255 255 255 255 255 255 255 255 255 255 255 255 
255 255 255 255 255 255 0 0 0 255 255 255 255 255 255 255 255 255 255 255 255 255 255 255 255 255 255 255 255 255 255 255 255 255 255 255 255 255 255 255 255 255 235 98 0 255 255 255 235 98 0 255 255 255 235 98 0 255 255 255 235 98 0 255 255 255 235 98 0 255 255 255 235 98 0 255 255 255 235 98 0 255 255 255 0 0 0 191 54 12 191 54 12 191 54 12 191 54 12 191 54 12 191 54 12 191 54 12 191 54 12 0 0 0 0 0 0 0 0 0 255 255 255 255 255 255 255 255 255 255 255 255 255 255 255 255 255 255 255 255 255 
255 255 255 255 255 255 255 255 255 0 0 0 191 54 12 255 255 255 255 255 255 255 255 255 255 255 255 255 255 255 255 255 255 255 255 255 255 255 255 255 255 255 255 255 255 255 255 255 255 255 255 235 98 0 255 255 255 235 98 0 255 255 255 235 98 0 255 255 255 235 98 0 255 255 255 235 98 0 255 255 255 0 0 0 0 0 0 0 0 0 191 54 12 191 54 12 191 54 12 191 54 12 191 54 12 191 54 12 191 54 12 191 54 12 0 0 0 255 255 255 255 255 255 255 255 255 255 255 255 255 255 255 255 255 255 255 255 255 255 255 255 
255 255 255 255 255 255 255 255 255 255 255 255 0 0 0 255 255 255 255 255 255 255 255 255 255 255 255 255 255 255 255 255 255 255 255 255 255 255 255 255 255 255 255 255 255 255 255 255 255 255 255 255 255 255 255 255 255 255 255 255 235 98 0 255 255 255 235 98 0 255 255 255 235 98 0 0 0 0 191 54 12 0 0 0 0 0 0 0 0 0 0 0 0 0 0 0 191 54 12 191 54 12 191 54 12 191 54 12 191 54 12 191 54 12 0 0 0 255 255 255 255 255 255 255 255 255 255 255 255 255 255 255 255 255 255 255 255 255 255 255 255 
255 255 255 255 255 255 255 255 255 0 0 0 255 255 255 255 255 255 0 0 0 255 255 255 255 255 255 255 255 255 255 255 255 255 255 255 255 255 255 255 255 255 255 255 255 255 255 255 255 255 255 255 255 255 255 255 255 235 98 0 255 255 255 235 98 0 255 255 255 255 255 255 255 255 255 255 255 255 0 0 0 0 0 0 0 0 0 191 54 12 255 255 255 255 255 255 0 0 0 191 54 12 191 54 12 191 54 12 191 54 12 191 54 12 191 54 12 191 54 12 255 255 255 255 255 255 255 255 255 255 255 255 255 255 255 255 255 255 255 255 255 
255 255 255 255 255 255 255 255 255 255 255 255 0 0 0 0 0 0 191 54 12 0 0 0 0 0 0 255 255 255 255 255 255 255 255 255 255 255 255 255 255 255 255 255 255 255 255 255 255 255 255 255 255 255 255 255 255 255 255 255 255 255 255 255 255 255 255 255 255 191 54 12 255 255 255 0 0 0 0 0 0 0 0 0 0 0 0 255 255 255 255 255 255 255 255 255 255 255 255 0 0 0 191 54 12 191 54 12 191 54 12 191 54 12 191 54 12 0 0 0 255 255 255 255 255 255 255 255 255 255 255 255 255 255 255 255 255 255 255 255 255 
255 255 255 255 255 255 255 255 255 255 255 255 255 255 255 0 0 0 235 98 0 0 0 0 255 255 255 255 255 255 255 255 255 255 255 255 255 255 255 255 255 255 255 255 255 255 255 255 255 255 255 255 255 255 255 255 255 255 255 255 0 0 0 255 255 255 255 255 255 0 0 0 0 0 0 191 54 12 0 0 0 0 0 0 0 0 0 255 255 255 255 255 255 255 255 255 255 255 255 0 0 0 191 54 12 191 54 12 191 54 12 191 54 12 191 54 12 0 0 0 255 255 255 255 255 255 255 255 255 255 255 255 255 255 255 255 255 255 255 255 255 
255 255 255 255 255 255 255 255 255 255 255 255 255 255 255 0 0 0 235 98 0 235 98 0 191 54 12 0 0 0 0 0 0 255 255 255 255 255 255 255 255 255 255 255 255 255 255 255 191 54 12 255 255 255 255 255 255 255 255 255 255 255 255 0 0 0 0 0 0 191 54 12 191 54 12 191 54 12 0 0 0 0 0 0 191 54 12 255 255 255 255 255 255 255 255 255 0 0 0 235 98 0 235 98 0 191 54 12 191 54 12 191 54 12 191 54 12 0 0 0 255 255 255 255 255 255 255 255 255 255 255 255 255 255 255 255 255 255 255 255 255 
255 255 255 255 255 255 255 255 255 255 255 255 255 255 255 0 0 0 255 255 255 235 98 0 235 98 0 235 98 0 0 0 0 255 255 255 0 0 0 0 0 0 255 255 255 255 255 255 255 255 255 0 0 0 0 0 0 255 255 255 255 255 255 0 0 0 235 98 0 235 98 0 191 54 12 191 54 12 0 0 0 191 54 12 255 255 255 255 255 255 255 255 255 255 255 255 0 0 0 235 98 0 235 98 0 235 98 0 191 54 12 191 54 12 0 0 0 255 255 255 255 255 255 255 255 255 255 255 255 255 255 255 255 255 255 255 255 255 255 255 255 
255 255 255 255 255 255 255 255 255 255 255 255 0 0 0 255 255 255 235 98 0 255 255 255 235 98 0 235 98 0 191 54 12 0 0 0 255 255 255 255 255 255 0 0 0 0 0 0 0 0 0 255 255 255 0 0 0 0 0 0 235 98 0 235 98 0 235 98 0 191 54 12 191 54 12 191 54 12 0 0 0 255 255 255 255 255 255 255 255 255 255 255 255 255 255 255 0 0 0 255 255 255 0 0 0 235 98 0 0 0 0 191 54 12 0 0 0 255 255 255 255 255 255 255 255 255 255 255 255 255 255 255 255 255 255 255 255 255 255 255 255 
255 255 255 255 255 255 255 255 255 255 255 255 0 0 0 235 98 0 235 98 0 235 98 0 235 98 0 191 54 12 191 54 12 0 0 0 255 255 255 255 255 255 255 255 255 255 255 255 255 255 255 255 255 255 255 255 255 0 0 0 255 255 255 235 98 0 255 255 255 235 98 0 191 54 12 191 54 12 0 0 0 255 255 255 255 255 255 255 255 255 255 255 255 255 255 255 255 255 255 0 0 0 0 0 0 0 0 0 0 0 0 0 0 0 255 255 255 255 255 255 255 255 255 255 255 255 255 255 255 255 255 255 255 255 255 255 255 255 255 255 255 
255 255 255 255 255 255 255 255 255 255 255 255 0 0 0 191 54 12 0 0 0 191 54 12 191 54 12 191 54 12 0 0 0 255 255 255 255 255 255 255 255 255 255 255 255 255 255 255 255 255 255 255 255 255 0 0 0 255 255 255 235 98 0 255 255 255 235 98 0 235 98 0 191 54 12 191 54 12 0 0 0 255 255 255 255 255 255 255 255 255 255 255 255 255 255 255 255 255 255 255 255 255 255 255 255 255 255 255 255 255 255 255 255 255 255 255 255 255 255 255 255 255 255 255 255 255 255 255 255 255 255 255 255 255 255 255 255 255 255 255 255 
255 255 255 255 255 255 255 255 255 255 255 255 255 255 255 0 0 0 0 0 0 0 0 0 0 0 0 0 0 0 255 255 255 255 255 255 255 255 255 255 255 255 255 255 255 255 255 255 255 255 255 255 255 255 0 0 0 191 54 12 235 98 0 235 98 0 235 98 0 235 98 0 191 54 12 0 0 0 255 255 255 255 255 255 255 255 255 255 255 255 255 255 255 255 255 255 255 255 255 255 255 255 255 255 255 255 255 255 255 255 255 255 255 255 255 255 255 255 255 255 255 255 255 255 255 255 255 255 255 255 255 255 255 255 255 255 255 255 255 255 255 
255 255 255 255 255 255 255 255 255 255 255 255 255 255 255 255 255 255 255 255 255 255 255 255 255 255 255 255 255 255 255 255 255 255 255 255 255 255 255 255 255 255 255 255 255 255 255 255 255 255 255 255 255 255 0 0 0 191 54 12 0 0 0 191 54 12 0 0 0 191 54 12 191 54 12 0 0 0 255 255 255 255 255 255 255 255 255 255 255 255 255 255 255 255 255 255 255 255 255 255 255 255 255 255 255 255 255 255 255 255 255 255 255 255 255 255 255 255 255 255 255 255 255 255 255 255 255 255 255 255 255 255 255 255 255 255 255 255 255 255 255 
255 255 255 255 255 255 255 255 255 255 255 255 255 255 255 255 255 255 255 255 255 255 255 255 255 255 255 255 255 255 255 255 255 255 255 255 255 255 255 255 255 255 255 255 255 255 255 255 255 255 255 255 255 255 255 255 255 0 0 0 0 0 0 0 0 0 0 0 0 0 0 0 0 0 0 255 255 255 255 255 255 255 255 255 255 255 255 255 255 255 255 255 255 255 255 255 255 255 255 255 255 255 255 255 255 255 255 255 255 255 255 255 255 255 255 255 255 255 255 255 255 255 255 255 255 255 255 255 255 255 255 255 255 255 255 255 255 255 255 255 255 
